<svg width="40" height="34" viewBox="0 0 40 34" fill="none" xmlns="http://www.w3.org/2000/svg">
<path d="M38.3337 1.99997C36.7376 3.12577 34.9705 3.98682 33.1003 4.54998C32.0966 3.39583 30.7625 2.57779 29.2787 2.20652C27.7949 1.83524 26.2328 1.92863 24.8038 2.47406C23.3748 3.01949 22.1477 3.99064 21.2886 5.25617C20.4295 6.52169 19.9798 8.02053 20.0003 9.54997V11.2166C17.0714 11.2926 14.1691 10.643 11.552 9.32572C8.9349 8.00844 6.68419 6.06437 5.00033 3.66664C5.00033 3.66664 -1.66634 18.6666 13.3337 25.3333C9.9012 27.6633 5.81225 28.8315 1.66699 28.6666C16.667 37 35.0003 28.6666 35.0003 9.49997C34.9988 9.03573 34.9542 8.57263 34.867 8.11664C36.568 6.43913 37.7684 4.32116 38.3337 1.99997V1.99997Z" stroke="#007074" stroke-width="3" stroke-linecap="round" stroke-linejoin="round"/>
</svg>
