<svg width="51" height="50" viewBox="0 0 51 50" fill="none" xmlns="http://www.w3.org/2000/svg">
<path d="M35.6233 4.1665H14.79C9.03699 4.1665 4.37329 8.8302 4.37329 14.5832V35.4165C4.37329 41.1695 9.03699 45.8332 14.79 45.8332H35.6233C41.3763 45.8332 46.04 41.1695 46.04 35.4165V14.5832C46.04 8.8302 41.3763 4.1665 35.6233 4.1665Z" stroke="white" stroke-width="3" stroke-linecap="round" stroke-linejoin="round"/>
<path d="M33.5399 23.6876C33.797 25.4215 33.5009 27.1923 32.6936 28.7481C31.8863 30.3039 30.609 31.5656 29.0433 32.3536C27.4776 33.1417 25.7034 33.416 23.9728 33.1375C22.2423 32.859 20.6436 32.042 19.4042 30.8026C18.1647 29.5631 17.3477 27.9645 17.0692 26.2339C16.7908 24.5034 17.0651 22.7291 17.8531 21.1634C18.6411 19.5978 19.9028 18.3204 21.4586 17.5131C23.0145 16.7059 24.7852 16.4097 26.5191 16.6668C28.2877 16.9291 29.925 17.7532 31.1893 19.0174C32.4535 20.2817 33.2777 21.9191 33.5399 23.6876Z" stroke="white" stroke-width="3" stroke-linecap="round" stroke-linejoin="round"/>
<path d="M36.6648 13.5415H36.6856" stroke="white" stroke-width="3" stroke-linecap="round" stroke-linejoin="round"/>
</svg>
