<svg width="40" height="40" viewBox="0 0 40 40" fill="none" xmlns="http://www.w3.org/2000/svg">
<path fill-rule="evenodd" clip-rule="evenodd" d="M12.442 1.77669C14.397 1.68669 15.0203 1.66669 20.0003 1.66669C24.9803 1.66669 25.6037 1.68835 27.557 1.77669C29.5103 1.86502 30.8437 2.17669 32.0103 2.62835C33.232 3.09002 34.3403 3.81169 35.257 4.74502C36.1903 5.66002 36.9103 6.76669 37.3703 7.99002C37.8237 9.15669 38.1337 10.49 38.2237 12.44C38.3137 14.3984 38.3337 15.0217 38.3337 20C38.3337 24.98 38.312 25.6034 38.2237 27.5584C38.1353 29.5084 37.8237 30.8417 37.3703 32.0084C36.9103 33.2318 36.1891 34.3404 35.257 35.2567C34.3403 36.19 33.232 36.91 32.0103 37.37C30.8437 37.8234 29.5103 38.1334 27.5603 38.2234C25.6037 38.3134 24.9803 38.3334 20.0003 38.3334C15.0203 38.3334 14.397 38.3117 12.442 38.2234C10.492 38.135 9.15866 37.8234 7.99199 37.37C6.76853 36.91 5.66003 36.1888 4.74366 35.2567C3.81096 34.3411 3.08918 33.2332 2.62866 32.01C2.17699 30.8433 1.86699 29.51 1.77699 27.56C1.68699 25.6017 1.66699 24.9784 1.66699 20C1.66699 15.02 1.68866 14.3967 1.77699 12.4434C1.86533 10.49 2.17699 9.15669 2.62866 7.99002C3.08986 6.76682 3.81219 5.65888 4.74533 4.74335C5.66039 3.81086 6.76778 3.08909 7.99032 2.62835C9.15699 2.17669 10.4903 1.86669 12.4403 1.77669H12.442ZM27.4087 5.07669C25.4753 4.98835 24.8953 4.97002 20.0003 4.97002C15.1053 4.97002 14.5253 4.98835 12.592 5.07669C10.8037 5.15835 9.83366 5.45669 9.18699 5.70835C8.33199 6.04169 7.72033 6.43669 7.07866 7.07835C6.4704 7.67011 6.00229 8.39049 5.70866 9.18669C5.45699 9.83335 5.15866 10.8034 5.07699 12.5917C4.98866 14.525 4.97033 15.105 4.97033 20C4.97033 24.895 4.98866 25.475 5.07699 27.4083C5.15866 29.1967 5.45699 30.1667 5.70866 30.8134C6.00199 31.6084 6.47033 32.33 7.07866 32.9217C7.67033 33.53 8.39199 33.9984 9.18699 34.2917C9.83366 34.5434 10.8037 34.8417 12.592 34.9234C14.5253 35.0117 15.1037 35.03 20.0003 35.03C24.897 35.03 25.4753 35.0117 27.4087 34.9234C29.197 34.8417 30.167 34.5434 30.8137 34.2917C31.6687 33.9584 32.2803 33.5634 32.922 32.9217C33.5303 32.33 33.9987 31.6084 34.292 30.8134C34.5437 30.1667 34.842 29.1967 34.9237 27.4083C35.012 25.475 35.0303 24.895 35.0303 20C35.0303 15.105 35.012 14.525 34.9237 12.5917C34.842 10.8034 34.5437 9.83335 34.292 9.18669C33.9587 8.33169 33.5637 7.72002 32.922 7.07835C32.3302 6.47014 31.6098 6.00204 30.8137 5.70835C30.167 5.45669 29.197 5.15835 27.4087 5.07669ZM17.6587 25.6517C18.9664 26.1961 20.4226 26.2695 21.7785 25.8596C23.1345 25.4496 24.306 24.5815 25.093 23.4038C25.88 22.226 26.2337 20.8115 26.0937 19.4019C25.9537 17.9923 25.3287 16.675 24.3253 15.675C23.6857 15.0358 22.9123 14.5464 22.0609 14.2419C21.2094 13.9375 20.301 13.8256 19.4011 13.9144C18.5013 14.0031 17.6322 14.2903 16.8567 14.7552C16.0811 15.2202 15.4182 15.8513 14.9158 16.6031C14.4134 17.3549 14.084 18.2088 13.9512 19.1033C13.8184 19.9977 13.8856 20.9105 14.1479 21.7759C14.4102 22.6413 14.8611 23.4377 15.4682 24.1079C16.0753 24.7781 16.8234 25.3053 17.6587 25.6517ZM13.337 13.3367C14.212 12.4616 15.2509 11.7675 16.3942 11.294C17.5375 10.8204 18.7628 10.5766 20.0003 10.5766C21.2378 10.5766 22.4632 10.8204 23.6065 11.294C24.7498 11.7675 25.7886 12.4616 26.6637 13.3367C27.5387 14.2117 28.2328 15.2506 28.7064 16.3938C29.18 17.5371 29.4237 18.7625 29.4237 20C29.4237 21.2375 29.18 22.4629 28.7064 23.6062C28.2328 24.7495 27.5387 25.7883 26.6637 26.6634C24.8964 28.4306 22.4996 29.4234 20.0003 29.4234C17.5011 29.4234 15.1042 28.4306 13.337 26.6634C11.5698 24.8961 10.5769 22.4993 10.5769 20C10.5769 17.5008 11.5698 15.1039 13.337 13.3367ZM31.5137 11.98C31.7305 11.7755 31.9041 11.5295 32.0242 11.2566C32.1442 10.9838 32.2083 10.6896 32.2127 10.3916C32.217 10.0935 32.1615 9.7976 32.0495 9.52137C31.9374 9.24514 31.771 8.9942 31.5603 8.78342C31.3495 8.57263 31.0985 8.40628 30.8223 8.29422C30.5461 8.18215 30.2502 8.12665 29.9521 8.13099C29.654 8.13534 29.3599 8.19944 29.087 8.31951C28.8142 8.43958 28.5682 8.61318 28.3637 8.83002C27.9658 9.25174 27.748 9.81189 27.7565 10.3916C27.7649 10.9713 27.999 11.5248 28.4089 11.9348C28.8189 12.3447 29.3724 12.5787 29.9521 12.5872C30.5318 12.5956 31.0919 12.3778 31.5137 11.98Z" fill="#007074"/>
</svg>
