<svg width="30" height="24" viewBox="0 0 30 24" fill="none" xmlns="http://www.w3.org/2000/svg">
<path fill-rule="evenodd" clip-rule="evenodd" d="M0.0166667 1.73002C0.0166667 1.28799 0.192261 0.864071 0.504822 0.55151C0.817383 0.23895 1.24131 0.0633545 1.68333 0.0633545H28.3333C28.7754 0.0633545 29.1993 0.23895 29.5118 0.55151C29.8244 0.864071 30 1.28799 30 1.73002V20.6034C30 21.4874 29.6488 22.3353 29.0237 22.9604C28.3986 23.5855 27.5507 23.9367 26.6667 23.9367H3.33333C2.44928 23.9367 1.60143 23.5855 0.976311 22.9604C0.351189 22.3353 0 21.4874 0 20.6034V2.27002C0 2.19002 0.00499998 2.11335 0.0166667 2.03669V1.73002ZM3.33333 5.43669V20.6034H26.6667V5.43669L18.535 13.5684C17.5974 14.5057 16.3258 15.0323 15 15.0323C13.6742 15.0323 12.4026 14.5057 11.465 13.5684L3.33333 5.43336V5.43669ZM5.95333 3.34336H24.0467L16.18 11.21C16.0252 11.365 15.8414 11.4879 15.6391 11.5718C15.4367 11.6557 15.2199 11.6988 15.0008 11.6988C14.7818 11.6988 14.5649 11.6557 14.3626 11.5718C14.1603 11.4879 13.9765 11.365 13.8217 11.21L5.955 3.34336H5.95333Z" fill="#007074"/>
</svg>
