<svg width="39" height="38" viewBox="0 0 39 38" fill="none" xmlns="http://www.w3.org/2000/svg">
<path fill-rule="evenodd" clip-rule="evenodd" d="M32.5461 5.73548C30.8135 3.99149 28.7521 2.60863 26.4813 1.66704C24.2104 0.725438 21.7753 0.243812 19.317 0.25006C9.00863 0.25006 0.61696 8.63964 0.612793 18.9521C0.612793 22.248 1.47321 25.4646 3.10863 28.3021L0.456543 37.9917L10.3711 35.3896C13.1136 36.8825 16.1861 37.6654 19.3086 37.6667H19.317C29.6232 37.6667 38.0149 29.2771 38.019 18.9646C38.0261 16.5073 37.5461 14.073 36.6067 11.8023C35.6673 9.53158 34.2872 7.46958 32.5461 5.73548ZM19.317 34.5105H19.3107C16.5264 34.5108 13.7933 33.7616 11.3982 32.3417L10.8315 32.0042L4.94821 33.548L6.51696 27.8126L6.14821 27.2251C4.59152 24.7468 3.76745 21.8788 3.77113 18.9521C3.77529 10.3813 10.7482 3.40839 19.3232 3.40839C21.3654 3.40386 23.3882 3.8044 25.2746 4.58683C27.1609 5.36927 28.8734 6.51806 30.3128 7.96673C31.7599 9.40848 32.9069 11.1228 33.6876 13.0105C34.4682 14.8982 34.8669 16.9219 34.8607 18.9646C34.8565 27.5355 27.8836 34.5105 19.317 34.5105ZM27.844 22.8667C27.3753 22.6313 25.0795 21.5021 24.6503 21.3459C24.2232 21.1896 23.9128 21.1126 23.6003 21.5792C23.2878 22.0459 22.392 23.098 22.119 23.4105C21.8461 23.723 21.5732 23.7605 21.1065 23.5271C20.6399 23.2938 19.1336 22.8001 17.3482 21.2084C15.9586 19.9688 15.0211 18.4396 14.7482 17.9709C14.4753 17.5021 14.719 17.2501 14.9545 17.0167C15.1649 16.8084 15.4211 16.4709 15.6545 16.198C15.8878 15.9251 15.9649 15.7313 16.1211 15.4188C16.2774 15.1063 16.2003 14.8334 16.0815 14.6001C15.9649 14.3646 15.0295 12.0646 14.6399 11.1292C14.2628 10.223 13.8774 10.3438 13.5899 10.3313C13.2921 10.3191 12.9941 10.3136 12.6961 10.3146C12.4592 10.3207 12.226 10.3756 12.0113 10.476C11.7965 10.5764 11.6048 10.72 11.4482 10.898C11.019 11.3667 9.81279 12.4959 9.81279 14.7959C9.81279 17.0959 11.4878 19.3188 11.7211 19.6313C11.9545 19.9438 15.017 24.6626 19.7045 26.6876C20.8211 27.1688 21.692 27.4563 22.369 27.673C23.4878 28.0292 24.5065 27.9771 25.3128 27.8584C26.2107 27.7251 28.0774 26.7292 28.467 25.6376C28.8565 24.5459 28.8565 23.6105 28.7399 23.4146C28.6232 23.2188 28.3086 23.1001 27.844 22.8667Z" fill="white"/>
</svg>
